<svg id="basket.2" xmlns="http://www.w3.org/2000/svg" width="51.8" height="51.8" viewBox="0 0 51.8 51.8">
  <path id="Path_11072" data-name="Path 11072" d="M0,0H51.8V51.8H0Z" fill="none"/>
  <path id="Path_11073" data-name="Path 11073" d="M4.785,10.612,9.3,4.7A4.314,4.314,0,0,1,12.728,3h17.31a4.314,4.314,0,0,1,3.432,1.7l4.511,5.914a4.314,4.314,0,0,1,.885,2.618v24.3a4.315,4.315,0,0,1-4.317,4.317H8.217A4.315,4.315,0,0,1,3.9,37.533V13.23a4.319,4.319,0,0,1,.885-2.618Z" transform="translate(4.518 3.475)" fill="none" stroke="#536b88" stroke-linecap="round" stroke-linejoin="round" stroke-width="3"/>
  <path id="Path_11074" data-name="Path 11074" d="M25.267,10A8.633,8.633,0,1,1,8,10" transform="translate(9.267 11.583)" fill="none" stroke="#536b88" stroke-linecap="round" stroke-linejoin="round" stroke-width="3"/>
  <path id="Path_11075" data-name="Path 11075" d="M4.02,7.07H38.467" transform="translate(4.657 8.189)" fill="none" stroke="#536b88" stroke-linecap="round" stroke-linejoin="round" stroke-width="3"/>
</svg>
