<svg id="Business_Chart.24" data-name="Business, Chart.24" xmlns="http://www.w3.org/2000/svg" width="24" height="24" viewBox="0 0 24 24">
  <g id="Group_48" data-name="Group 48">
    <path id="Path_401" data-name="Path 401" d="M16,21l-1-4" fill="none" stroke="#bdc8d6" stroke-linecap="round" stroke-linejoin="round" stroke-width="1.5"/>
    <path id="Path_402" data-name="Path 402" d="M8,21l1-4" fill="none" stroke="#bdc8d6" stroke-linecap="round" stroke-linejoin="round" stroke-width="1.5"/>
    <path id="Path_403" data-name="Path 403" d="M18.925,17H5.075A2.075,2.075,0,0,1,3,14.925V5.075A2.075,2.075,0,0,1,5.075,3H18.924A2.075,2.075,0,0,1,21,5.075v9.849A2.075,2.075,0,0,1,18.925,17Z" fill="none" stroke="#bdc8d6" stroke-linecap="round" stroke-linejoin="round" stroke-width="1.5"/>
    <path id="Path_404" data-name="Path 404" d="M7.5,13V10.27" fill="none" stroke="#bdc8d6" stroke-linecap="round" stroke-linejoin="round" stroke-width="1.5"/>
    <path id="Path_405" data-name="Path 405" d="M10.5,13V7" fill="none" stroke="#bdc8d6" stroke-linecap="round" stroke-linejoin="round" stroke-width="1.5"/>
    <path id="Path_406" data-name="Path 406" d="M13.5,13V9.68" fill="none" stroke="#bdc8d6" stroke-linecap="round" stroke-linejoin="round" stroke-width="1.5"/>
    <path id="Path_407" data-name="Path 407" d="M16.5,13V7.55" fill="none" stroke="#bdc8d6" stroke-linecap="round" stroke-linejoin="round" stroke-width="1.5"/>
  </g>
  <path id="Path_408" data-name="Path 408" d="M0,0H24V24H0Z" fill="none"/>
</svg>
