<svg id="Credit_card_Payment_Action.3" data-name="Credit card, Payment, Action.3" xmlns="http://www.w3.org/2000/svg" width="24" height="24" viewBox="0 0 24 24">
  <g id="Group_712" data-name="Group 712">
    <path id="Path_8968" data-name="Path 8968" d="M14.98,16l5.434-5.434a2,2,0,0,0,0-2.828L17.263,4.587a2,2,0,0,0-2.828,0L8.294,10.728a2,2,0,0,0,0,2.828L10.738,16" fill="none" stroke="#1641ff" stroke-linecap="round" stroke-linejoin="round" stroke-width="1.5"/>
    <path id="Path_8969" data-name="Path 8969" d="M20,20H4a1,1,0,0,1-1-1V17a1,1,0,0,1,1-1H20a1,1,0,0,1,1,1v2A1,1,0,0,1,20,20Z" fill="none" stroke="#1641ff" stroke-linecap="round" stroke-linejoin="round" stroke-width="1.5"/>
    <path id="Path_8970" data-name="Path 8970" d="M3,4H8" fill="none" stroke="#1641ff" stroke-linecap="round" stroke-linejoin="round" stroke-width="1.5"/>
    <path id="Path_8971" data-name="Path 8971" d="M3,7H6" fill="none" stroke="#1641ff" stroke-linecap="round" stroke-linejoin="round" stroke-width="1.5"/>
    <path id="Path_8972" data-name="Path 8972" d="M3,10H4" fill="none" stroke="#1641ff" stroke-linecap="round" stroke-linejoin="round" stroke-width="1.5"/>
    <path id="Path_8973" data-name="Path 8973" d="M9.12,14.38l8.97-8.97" fill="none" stroke="#1641ff" stroke-linecap="round" stroke-linejoin="round" stroke-width="1.5"/>
  </g>
  <path id="Path_8974" data-name="Path 8974" d="M0,0H24V24H0Z" fill="none"/>
</svg>
