<svg xmlns="http://www.w3.org/2000/svg" width="24" height="24" viewBox="0 0 24 24">
  <g id="Group_7054" data-name="Group 7054" transform="translate(-11221 3337)">
    <path id="Path_6035" data-name="Path 6035" d="M0,0H24V24H0Z" transform="translate(11221 -3337)" fill="none"/>
    <path id="Path_6036" data-name="Path 6036" d="M11.238,15.66H8.573V12.995a1.028,1.028,0,0,1,.3-.729L13,8.143a1.03,1.03,0,0,1,1.457,0L16.09,9.778a1.03,1.03,0,0,1,0,1.457l-4.123,4.123a1.032,1.032,0,0,1-.729.3Z" transform="translate(11220.927 -3337.341)" fill="none" stroke="#bdc8d6" stroke-linecap="round" stroke-linejoin="round" stroke-width="1"/>
    <path id="Path_6037" data-name="Path 6037" d="M15.979,22.452H9.473C5.295,22.452,3,20.157,3,15.979V9.473C3,5.295,5.295,3,9.473,3h6.506c4.178,0,6.473,2.295,6.473,6.473v6.506C22.452,20.157,20.157,22.452,15.979,22.452Z" transform="translate(11220.5 -3338.5)" fill="none" stroke="#bdc8d6" stroke-linecap="round" stroke-linejoin="round" stroke-width="1"/>
  </g>
</svg>
