<svg id="Pin_Location.1" data-name="Pin, Location.1" xmlns="http://www.w3.org/2000/svg" width="18" height="18" viewBox="0 0 18 18">
  <path id="Path_7855" data-name="Path 7855" d="M0,0H18V18H0Z" fill="none"/>
  <path id="Path_7856" data-name="Path 7856" d="M11.25,11.5h0A2.25,2.25,0,0,1,9,9.25H9A2.25,2.25,0,0,1,11.25,7h0A2.25,2.25,0,0,1,13.5,9.25h0A2.25,2.25,0,0,1,11.25,11.5Z" transform="translate(-2.25 -1.75)" fill="none" stroke="#536b88" stroke-linecap="round" stroke-linejoin="round" stroke-width="1"/>
  <path id="Path_7857" data-name="Path 7857" d="M10.25,16.5S5,12.188,5,8.25a5.25,5.25,0,0,1,10.5,0C15.5,12.188,10.25,16.5,10.25,16.5Z" transform="translate(-1.25 -0.75)" fill="none" stroke="#536b88" stroke-linecap="round" stroke-linejoin="round" stroke-width="1"/>
</svg>
