<svg id="Pen_Edit.7" data-name="Pen, Edit.7" xmlns="http://www.w3.org/2000/svg" width="21.631" height="21.631" viewBox="0 0 21.631 21.631">
  <path id="Path_6035" data-name="Path 6035" d="M0,0H21.631V21.631H0Z" fill="none"/>
  <path id="Path_6036" data-name="Path 6036" d="M10.9,14.678H8.573V12.348a.9.9,0,0,1,.264-.637l3.605-3.605a.9.9,0,0,1,1.274,0l1.429,1.429a.9.9,0,0,1,0,1.274l-3.605,3.605a.9.9,0,0,1-.637.264Z" transform="translate(-0.846 -0.774)" fill="none" stroke="#fff" stroke-linecap="round" stroke-linejoin="round" stroke-width="1"/>
  <path id="Path_6037" data-name="Path 6037" d="M12.914,19.224H9.309A6.309,6.309,0,0,1,3,12.914V9.309A6.309,6.309,0,0,1,9.309,3h3.605a6.309,6.309,0,0,1,6.309,6.309v3.605A6.309,6.309,0,0,1,12.914,19.224Z" transform="translate(-0.296 -0.296)" fill="none" stroke="#fff" stroke-linecap="round" stroke-linejoin="round" stroke-width="1"/>
</svg>
