<svg id="Group_7310" data-name="Group 7310" xmlns="http://www.w3.org/2000/svg" width="18" height="18" viewBox="0 0 18 18">
  <g id="Pin_Location.1" data-name="Pin, Location.1">
    <path id="Path_7855" data-name="Path 7855" d="M0,0H18V18H0Z" fill="none"/>
    <g id="communications" transform="translate(2.617 2)">
      <g id="Group_7340" data-name="Group 7340">
        <g id="Group_7339" data-name="Group 7339" transform="translate(0 0)">
          <path id="Path_12961" data-name="Path 12961" d="M14.147,11.433,11.414,9.61a.8.8,0,0,0-1.068.173l-.8,1.023a.34.34,0,0,1-.436.092l-.151-.083A9.151,9.151,0,0,1,6.578,8.943,9.188,9.188,0,0,1,4.7,6.558l-.083-.151a.341.341,0,0,1,.09-.438l1.023-.8A.8.8,0,0,0,5.908,4.1L4.086,1.372a.793.793,0,0,0-1.07-.241l-1.143.686a1.612,1.612,0,0,0-.735.954c-.411,1.5-.1,4.087,3.71,7.9,3.032,3.032,5.289,3.847,6.841,3.847a3.986,3.986,0,0,0,1.057-.138,1.61,1.61,0,0,0,.954-.735l.687-1.142A.794.794,0,0,0,14.147,11.433ZM14,12.272l-.686,1.143a1.163,1.163,0,0,1-.686.532c-1.384.38-3.8.065-7.462-3.594S1.193,4.275,1.573,2.891A1.165,1.165,0,0,1,2.105,2.2l1.143-.686a.344.344,0,0,1,.464.1L4.7,3.109l.831,1.246a.346.346,0,0,1-.075.463l-1.023.8a.787.787,0,0,0-.209,1.011l.081.148a9.544,9.544,0,0,0,1.95,2.488,9.554,9.554,0,0,0,2.488,1.95l.148.081A.787.787,0,0,0,9.9,11.084l.8-1.023a.346.346,0,0,1,.463-.075L13.9,11.808A.344.344,0,0,1,14,12.272Z" transform="translate(-1 -1.018)" fill="#92a4bb" stroke="#536b88" stroke-width="0.4"/>
          <path id="Path_12962" data-name="Path 12962" d="M282.853,69.774a3.829,3.829,0,0,1,3.825,3.825.225.225,0,1,0,.45,0,4.279,4.279,0,0,0-4.275-4.275.225.225,0,0,0,0,.45Z" transform="translate(-275.203 -67.523)" fill="#92a4bb" stroke="#536b88" stroke-width="0.4"/>
          <path id="Path_12963" data-name="Path 12963" d="M282.853,120.974a2.478,2.478,0,0,1,2.475,2.475.225.225,0,0,0,.45,0,2.928,2.928,0,0,0-2.925-2.925.225.225,0,0,0,0,.45Z" transform="translate(-275.203 -117.373)" fill="#92a4bb" stroke="#536b88" stroke-width="0.4"/>
          <path id="Path_12964" data-name="Path 12964" d="M282.853,172.174a1.126,1.126,0,0,1,1.125,1.125.225.225,0,1,0,.45,0,1.577,1.577,0,0,0-1.575-1.575.225.225,0,1,0,0,.45Z" transform="translate(-275.203 -167.223)" fill="#92a4bb" stroke="#536b88" stroke-width="0.4"/>
        </g>
      </g>
    </g>
  </g>
</svg>
