<svg id="Component_7_1" data-name="Component 7 – 1" xmlns="http://www.w3.org/2000/svg" width="20" height="20" viewBox="0 0 20 20">
  <g id="login-square-arrow-button-outline" transform="translate(3 -35.25)">
    <g id="_x36__30_" transform="translate(0 38.25)">
      <g id="Group_7180" data-name="Group 7180">
        <path id="Path_12948" data-name="Path 12948" d="M7.636,48.7a.516.516,0,1,0,.73.73l3.562-3.562a.6.6,0,0,0,0-.782L8.366,41.525a.516.516,0,1,0-.73.73l2.707,2.707H.516a.516.516,0,0,0,0,1.033h9.826Zm5.3-10.45H4.13a2.065,2.065,0,0,0-2.065,2.065V42.38H3.1V40.315A1.033,1.033,0,0,1,4.13,39.283h8.8a1.033,1.033,0,0,1,1.033,1.033V50.64a1.033,1.033,0,0,1-1.033,1.033H4.13A1.032,1.032,0,0,1,3.1,50.64V48.575H2.065V50.64A2.065,2.065,0,0,0,4.13,52.705h8.8A2.065,2.065,0,0,0,15,50.64V40.315A2.065,2.065,0,0,0,12.935,38.25Z" transform="translate(0 -38.25)" fill="#bdc8d6" stroke="#bdc8d6" stroke-width="0.55"/>
      </g>
    </g>
  </g>
  <rect id="Rectangle_831" data-name="Rectangle 831" width="20" height="20" fill="none"/>
</svg>
