<svg id="Single_User_Clock" data-name="Single, User, Clock" xmlns="http://www.w3.org/2000/svg" width="24" height="24" viewBox="0 0 24 24">
  <g id="Group_996" data-name="Group 996">
    <path id="Path_12118" data-name="Path 12118" d="M12.469,3.023a3.492,3.492,0,1,1-4.938,0,3.492,3.492,0,0,1,4.938,0" fill="none" stroke="#ffc452" stroke-linecap="round" stroke-linejoin="round" stroke-width="1.5"/>
    <path id="Path_12119" data-name="Path 12119" d="M14.363,12.8A11.938,11.938,0,0,0,10,11.991c-4.048,0-8,1.967-8,4.992v1a1,1,0,0,0,1,1h9.413" fill="none" stroke="#ffc452" stroke-linecap="round" stroke-linejoin="round" stroke-width="1.5"/>
    <path id="Path_12120" data-name="Path 12120" d="M17,22a5,5,0,0,1-5-5,5.077,5.077,0,0,1,5-5,5,5,0,0,1,0,10" fill="none" stroke="#ffc452" stroke-linecap="round" stroke-linejoin="round" stroke-width="1.5"/>
    <path id="Path_12121" data-name="Path 12121" d="M18.512,16.961H16.488V14.938" fill="none" stroke="#ffc452" stroke-linecap="round" stroke-linejoin="round" stroke-width="1.5"/>
  </g>
  <path id="Path_12122" data-name="Path 12122" d="M0,0H24V24H0Z" fill="none"/>
</svg>
