<svg xmlns="http://www.w3.org/2000/svg" width="19.149" height="20.235" viewBox="0 0 19.149 20.235">
  <g id="Group_7456" data-name="Group 7456" transform="translate(-5.425 -5.575)">
    <path id="Path_3942" data-name="Path 3942" d="M14.352,20H10.4" transform="translate(2.624 5.06)" fill="none" stroke="#bdc8d6" stroke-linecap="round" stroke-linejoin="round" stroke-width="1.5"/>
    <path id="Path_3943" data-name="Path 3943" d="M20.128,11.215v-.04h0A6.241,6.241,0,0,0,13.825,5h0a6.241,6.241,0,0,0-6.3,6.175h0v3.093a1.053,1.053,0,0,1-.6.944l-.634.31A2.289,2.289,0,0,0,5,17.571H5a2.314,2.314,0,0,0,2.337,2.29H20.312a2.314,2.314,0,0,0,2.337-2.29h0a2.286,2.286,0,0,0-1.292-2.048l-.634-.31a1.057,1.057,0,0,1-.6-.945V11.215Z" transform="translate(1.175 1.325)" fill="none" stroke="#bdc8d6" stroke-linecap="round" stroke-linejoin="round" stroke-width="1.5"/>
  </g>
</svg>
