<svg id="Сoupon_Discount.1" data-name="Сoupon, Discount.1" xmlns="http://www.w3.org/2000/svg" width="24" height="24" viewBox="0 0 24 24">
  <path id="Path_11314" data-name="Path 11314" d="M0,0H24V24H0Z" fill="none"/>
  <path id="Path_11315" data-name="Path 11315" d="M0,0H24V24H0Z" fill="none"/>
  <path id="Path_11316" data-name="Path 11316" d="M11.89,12.11l.55-.55" fill="none" stroke="#fff" stroke-linecap="round" stroke-linejoin="round" stroke-width="1.5"/>
  <path id="Path_11317" data-name="Path 11317" d="M8.57,15.43l-.55.55" fill="none" stroke="#fff" stroke-linecap="round" stroke-linejoin="round" stroke-width="1.5"/>
  <path id="Path_11318" data-name="Path 11318" d="M8.013,14.071A1.126,1.126,0,0,0,8.3,15.149l.276.276.329.329a1.1,1.1,0,0,0,1.715-1.338l-.775-1.294a1.1,1.1,0,0,1,1.715-1.338l.329.329.276.276a1.128,1.128,0,0,1,.287,1.075" fill="none" stroke="#fff" stroke-linecap="round" stroke-linejoin="round" stroke-width="1.5"/>
  <path id="Path_11319" data-name="Path 11319" d="M15.807,8.193a.371.371,0,1,1-.525,0,.371.371,0,0,1,.525,0" fill="none" stroke="#fff" stroke-linecap="round" stroke-linejoin="round" stroke-width="1.5"/>
  <path id="Path_11320" data-name="Path 11320" d="M13.512,4H17.9A2.1,2.1,0,0,1,20,6.1v4.385a2.105,2.105,0,0,1-.616,1.487l-8.41,8.41a2.1,2.1,0,0,1-2.973,0L3.616,16a2.1,2.1,0,0,1,0-2.973l8.41-8.41A2.1,2.1,0,0,1,13.512,4Z" fill="none" stroke="#fff" stroke-linecap="round" stroke-linejoin="round" stroke-width="1.5"/>
</svg>
