<svg id="Credit_card_Payment_Action.3" data-name="Credit card, Payment, Action.3" xmlns="http://www.w3.org/2000/svg" width="51.8" height="51.8" viewBox="0 0 51.8 51.8">
  <g id="Group_712" data-name="Group 712" transform="translate(6.475 8.633)">
    <path id="Path_8968" data-name="Path 8968" d="M23.4,29.9,35.131,18.17a4.316,4.316,0,0,0,0-6.1l-6.8-6.8a4.316,4.316,0,0,0-6.1,0L8.972,18.52a4.316,4.316,0,0,0,0,6.1L14.247,29.9" transform="translate(2.454 -3.999)" fill="none" stroke="#1641ff" stroke-linecap="round" stroke-linejoin="round" stroke-width="3"/>
    <path id="Path_8969" data-name="Path 8969" d="M39.692,24.633H5.158A2.159,2.159,0,0,1,3,22.475V18.158A2.159,2.159,0,0,1,5.158,16H39.692a2.159,2.159,0,0,1,2.158,2.158v4.317A2.159,2.159,0,0,1,39.692,24.633Z" transform="translate(-3 9.9)" fill="none" stroke="#1641ff" stroke-linecap="round" stroke-linejoin="round" stroke-width="3"/>
    <path id="Path_8970" data-name="Path 8970" d="M3,4H13.792" transform="translate(-3 -4)" fill="none" stroke="#1641ff" stroke-linecap="round" stroke-linejoin="round" stroke-width="3"/>
    <path id="Path_8971" data-name="Path 8971" d="M3,7H9.475" transform="translate(-3 -0.525)" fill="none" stroke="#1641ff" stroke-linecap="round" stroke-linejoin="round" stroke-width="3"/>
    <path id="Path_8972" data-name="Path 8972" d="M3,10H5.158" transform="translate(-3 2.95)" fill="none" stroke="#1641ff" stroke-linecap="round" stroke-linejoin="round" stroke-width="3"/>
    <path id="Path_8973" data-name="Path 8973" d="M9.12,24.77,28.48,5.41" transform="translate(4.089 -2.367)" fill="none" stroke="#1641ff" stroke-linecap="round" stroke-linejoin="round" stroke-width="3"/>
  </g>
  <path id="Path_8974" data-name="Path 8974" d="M0,0H51.8V51.8H0Z" fill="none"/>
</svg>
