<svg id="Delivery" xmlns="http://www.w3.org/2000/svg" width="24" height="24" viewBox="0 0 24 24">
  <path id="Path_1816" data-name="Path 1816" d="M17.2,14.423V9.577a1,1,0,0,0-.5-.866L12.5,6.289a1,1,0,0,0-1,0L7.3,8.711a1,1,0,0,0-.5.866v4.845a1,1,0,0,0,.5.866l4.2,2.423a1,1,0,0,0,1,0l4.2-2.423a1,1,0,0,0,.5-.865Z" fill="none" stroke="#bdc8d6" stroke-linecap="round" stroke-linejoin="round" stroke-width="1.25" fill-rule="evenodd"/>
  <path id="Path_1817" data-name="Path 1817" d="M7.5,3H5A2,2,0,0,0,3,5V7.5" fill="none" stroke="#bdc8d6" stroke-linecap="round" stroke-linejoin="round" stroke-width="1.383"/>
  <g id="Group_173" data-name="Group 173">
    <path id="Path_1818" data-name="Path 1818" d="M3,16.5V19a2,2,0,0,0,2,2H7.5" fill="none" stroke="#bdc8d6" stroke-linecap="round" stroke-linejoin="round" stroke-width="1.383"/>
    <path id="Path_1819" data-name="Path 1819" d="M16.5,21H19a2,2,0,0,0,2-2V16.5" fill="none" stroke="#bdc8d6" stroke-linecap="round" stroke-linejoin="round" stroke-width="1.383"/>
    <path id="Path_1820" data-name="Path 1820" d="M21,7.5V5a2,2,0,0,0-2-2H16.5" fill="none" stroke="#bdc8d6" stroke-linecap="round" stroke-linejoin="round" stroke-width="1.383"/>
    <path id="Path_1821" data-name="Path 1821" d="M12,17.84V12" fill="none" stroke="#bdc8d6" stroke-linecap="round" stroke-linejoin="round" stroke-width="1.25"/>
    <path id="Path_1822" data-name="Path 1822" d="M6.938,9.077,12,12l5.062-2.923" fill="none" stroke="#bdc8d6" stroke-linecap="round" stroke-linejoin="round" stroke-width="1.25"/>
  </g>
  <path id="Path_1823" data-name="Path 1823" d="M0,0H24V24H0Z" fill="none"/>
</svg>
