<svg xmlns="http://www.w3.org/2000/svg" width="51" height="51" viewBox="0 0 51 51">
  <g id="Group_7457" data-name="Group 7457" transform="translate(-1595 -24)">
    <rect id="Rectangle_1" data-name="Rectangle 1" width="51" height="51" rx="16" transform="translate(1595 24)" fill="#1641ff"/>
    <g id="Group_7209" data-name="Group 7209" transform="translate(1566.748 12.69)">
      <path id="Path_1" data-name="Path 1" d="M310.337,119.779a10.42,10.42,0,0,0-4.511,1.507,26.9,26.9,0,0,0-4.923,3.635c-.382.35-1.063,1.006-1.063,1.024s.355.2,1.155.633c.991.536,1.548.851,2.055,1.161.577.352.914.579,1.98,1.335a18.168,18.168,0,0,0,2.4,1.524,7.446,7.446,0,0,0,1.963.694,5.537,5.537,0,0,0,1.183.125,5.964,5.964,0,0,0,3.568-1.185,5.694,5.694,0,0,0,1.605-1.859.2.2,0,0,1,.038-.055c.008,0,.2.152.348.275a10.43,10.43,0,0,1,2.181,2.525,10.178,10.178,0,0,1,1.352,3.628,9.154,9.154,0,0,1,.127,1.434,9.91,9.91,0,0,1-.578,3.561,10.221,10.221,0,0,1-3.066,4.415c-.066.055-.184.153-.263.217-.309.254-.428.4-.482.577a1.2,1.2,0,0,0-.038.376.819.819,0,0,0,.474.617.682.682,0,0,0,.385.087c.225,0,.288-.024.559-.225a11.132,11.132,0,0,0,1.928-1.827,11.982,11.982,0,0,0,2.687-6.189,11.458,11.458,0,0,0,.053-2.222,12.09,12.09,0,0,0-.19-1.483,11.9,11.9,0,0,0-4.493-7.142c-.1-.078-.4-.292-.417-.3,0,0,.008-.057.019-.125a5.9,5.9,0,0,0-.106-2.4,5.856,5.856,0,0,0-5.11-4.321C311.009,119.783,310.481,119.772,310.337,119.779Zm.739,1.725a3.854,3.854,0,0,1,.9.209,3.974,3.974,0,0,1,1.111.592,4.159,4.159,0,0,1,1.642,2.883,4.7,4.7,0,0,1,.011.51l-.14-.063a12.055,12.055,0,0,0-5.139-1.1l-.283,0-.053.038a1.283,1.283,0,0,0-.448.547.836.836,0,0,0-.035.51.789.789,0,0,0,.531.526,2.235,2.235,0,0,0,.695.082,9.282,9.282,0,0,1,1.735.182,9.979,9.979,0,0,1,2.508.858l.225.111-.06.11a4.32,4.32,0,0,1-2.2,1.942,3.974,3.974,0,0,1-2.107.218,5.9,5.9,0,0,1-1.906-.656,16.376,16.376,0,0,1-1.941-1.256c-.209-.15-.484-.345-.611-.435a29.715,29.715,0,0,0-2.627-1.653,1.045,1.045,0,0,1-.121-.075c0-.013.637-.546.959-.8a18.161,18.161,0,0,1,4.64-2.807,6.464,6.464,0,0,1,1.935-.478,6.835,6.835,0,0,1,.777.011Z" transform="translate(-255.527 -99.467)" fill="#fff" stroke="#fff" stroke-width="1"/>
      <path id="Path_2" data-name="Path 2" d="M251.626,362.891a1.57,1.57,0,0,0-.4.1l-.065.027-.081.125a12.122,12.122,0,0,0-1.431,3.153,11.932,11.932,0,0,0,1.88,10.425,11.322,11.322,0,0,0,2.145,2.2,13.587,13.587,0,0,0,2.337,1.487,9.65,9.65,0,0,0,3.688.973c.228.017,1.188.014,1.427,0l.179-.012s-.218.218-.488.483-.969.956-1.556,1.536c-1.011,1-2.042,2.014-2.3,2.266a1.261,1.261,0,0,0-.4.607.748.748,0,0,0,0,.307,1.668,1.668,0,0,0,.143.329.814.814,0,0,0,.451.308,1.219,1.219,0,0,0,.485,0,.868.868,0,0,0,.427-.29l.916-.894c2.189-2.136,4.808-4.719,4.895-4.825a1.138,1.138,0,0,0,.045-1.342c-.067-.1-1.406-1.427-3.43-3.408-.453-.443-1.1-1.08-1.447-1.416a10.308,10.308,0,0,0-1.221-1.148.714.714,0,0,0-.422-.143.579.579,0,0,0-.2.028.793.793,0,0,0-.4.225.861.861,0,0,0-.249.589.721.721,0,0,0,.113.448c.026.04.267.286.847.861.987.981,2.106,2.088,3.118,3.086.417.411.757.748.755.751s-1.122-.016-1.3-.025a8.582,8.582,0,0,1-1.333-.15,9.111,9.111,0,0,1-2.395-.912,8.567,8.567,0,0,1-1.039-.594,9.353,9.353,0,0,1-1.481-1.22,9.766,9.766,0,0,1-1.07-1.258,10.269,10.269,0,0,1-1.886-5.188,11.159,11.159,0,0,1,0-1.558,9.856,9.856,0,0,1,1.339-4.294,2.411,2.411,0,0,0,.3-.631.769.769,0,0,0-.328-.887.938.938,0,0,0-.263-.1A1.86,1.86,0,0,0,251.626,362.891Z" transform="translate(-206.927 -332.689)" fill="#fff" stroke="#fff" stroke-width="1"/>
    </g>
  </g>
</svg>
