<svg id="User_Profile.1" data-name="User,Profile.1" xmlns="http://www.w3.org/2000/svg" width="24" height="24" viewBox="0 0 24 24">
  <g id="Group_1020" data-name="Group 1020">
    <path id="Path_12316" data-name="Path 12316" d="M13.768,10.982a2.5,2.5,0,1,1-3.536,0,2.5,2.5,0,0,1,3.536,0" fill="none" stroke="#1641ff" stroke-linecap="round" stroke-linejoin="round" stroke-width="1.5"/>
    <path id="Path_12317" data-name="Path 12317" d="M19.254,4.982a2.5,2.5,0,1,1-3.536,0,2.5,2.5,0,0,1,3.536,0" fill="none" stroke="#1641ff" stroke-linecap="round" stroke-linejoin="round" stroke-width="1.5"/>
    <path id="Path_12318" data-name="Path 12318" d="M18,12.25a6.551,6.551,0,0,1,4,1.333" fill="none" stroke="#1641ff" stroke-linecap="round" stroke-linejoin="round" stroke-width="1.5"/>
    <path id="Path_12319" data-name="Path 12319" d="M8.282,4.982a2.5,2.5,0,1,1-3.536,0,2.5,2.5,0,0,1,3.536,0" fill="none" stroke="#1641ff" stroke-linecap="round" stroke-linejoin="round" stroke-width="1.5"/>
    <path id="Path_12320" data-name="Path 12320" d="M2,13.583A6.551,6.551,0,0,1,6,12.25" fill="none" stroke="#1641ff" stroke-linecap="round" stroke-linejoin="round" stroke-width="1.5"/>
    <path id="Path_12321" data-name="Path 12321" d="M16.591,19.75a7.776,7.776,0,0,0-9.182,0" fill="none" stroke="#1641ff" stroke-linecap="round" stroke-linejoin="round" stroke-width="1.5"/>
  </g>
  <path id="Path_12322" data-name="Path 12322" d="M0,0H24V24H0Z" fill="none"/>
</svg>
