<svg id="Infornation_Info.2" data-name="Infornation, Info.2" xmlns="http://www.w3.org/2000/svg" width="24" height="24" viewBox="0 0 24 24">
  <g id="Group_429" data-name="Group 429">
    <path id="Path_5372" data-name="Path 5372" d="M12,12v5" fill="none" stroke="#1641ff" stroke-linecap="round" stroke-linejoin="round" stroke-width="1.5"/>
    <path id="Path_5373" data-name="Path 5373" d="M12,8a.25.25,0,1,0,.251.25A.249.249,0,0,0,12,8" fill="none" stroke="#1641ff" stroke-linecap="round" stroke-linejoin="round" stroke-width="1.5"/>
    <path id="Path_5374" data-name="Path 5374" d="M19,21H5a2,2,0,0,1-2-2V5A2,2,0,0,1,5,3H19a2,2,0,0,1,2,2V19A2,2,0,0,1,19,21Z" fill="none" stroke="#1641ff" stroke-linecap="round" stroke-linejoin="round" stroke-width="1.5"/>
  </g>
  <path id="Path_5375" data-name="Path 5375" d="M0,0H24V24H0Z" fill="none"/>
</svg>
