<svg id="Pin_Location_Direction.6" data-name="Pin, Location, Direction.6" xmlns="http://www.w3.org/2000/svg" width="24" height="24" viewBox="0 0 24 24">
  <g id="Group_650" data-name="Group 650">
    <path id="Path_7843" data-name="Path 7843" d="M7.5,3H5.25A2.25,2.25,0,0,0,3,5.25V7.5" fill="none" stroke="#536b88" stroke-linecap="round" stroke-linejoin="round" stroke-width="1.5"/>
    <path id="Path_7844" data-name="Path 7844" d="M3,16.5v2.25A2.25,2.25,0,0,0,5.25,21H7.5" fill="none" stroke="#536b88" stroke-linecap="round" stroke-linejoin="round" stroke-width="1.5"/>
    <path id="Path_7845" data-name="Path 7845" d="M16.5,21h2.25A2.25,2.25,0,0,0,21,18.75V16.5" fill="none" stroke="#536b88" stroke-linecap="round" stroke-linejoin="round" stroke-width="1.5"/>
    <path id="Path_7846" data-name="Path 7846" d="M21,7.5V5.25A2.25,2.25,0,0,0,18.75,3H16.5" fill="none" stroke="#536b88" stroke-linecap="round" stroke-linejoin="round" stroke-width="1.5"/>
  </g>
  <path id="Path_7847" data-name="Path 7847" d="M0,0H24V24H0Z" fill="none"/>
  <g id="Group_651" data-name="Group 651">
    <path id="Path_7848" data-name="Path 7848" d="M12,17s-3.889-3.194-3.889-6.111a3.889,3.889,0,0,1,7.778,0C15.889,13.806,12,17,12,17Z" fill="none" stroke="#536b88" stroke-linecap="round" stroke-linejoin="round" stroke-width="1.5"/>
    <path id="Path_7849" data-name="Path 7849" d="M12,10.722a.278.278,0,1,0,.279.277A.278.278,0,0,0,12,10.722" fill="none" stroke="#536b88" stroke-linecap="round" stroke-linejoin="round" stroke-width="1.5"/>
  </g>
</svg>
