<svg id="Trash_Delete_Recicle" data-name="Trash, Delete, Recicle" xmlns="http://www.w3.org/2000/svg" width="24" height="24" viewBox="0 0 24 24">
  <g id="Group_574" data-name="Group 574">
    <path id="Path_7085" data-name="Path 7085" d="M15.019,12.724l.874,1.514a.907.907,0,0,1-.785,1.36H13.36" fill="none" stroke="#bdc8d6" stroke-linecap="round" stroke-linejoin="round" stroke-width="1.5"/>
    <path id="Path_7086" data-name="Path 7086" d="M8.981,12.724l-.874,1.514a.907.907,0,0,0,.785,1.36H10.64" fill="none" stroke="#bdc8d6" stroke-linecap="round" stroke-linejoin="round" stroke-width="1.5"/>
    <path id="Path_7087" data-name="Path 7087" d="M10.341,10.369l.874-1.514a.907.907,0,0,1,1.57,0l.874,1.514" fill="none" stroke="#bdc8d6" stroke-linecap="round" stroke-linejoin="round" stroke-width="1.5"/>
    <path id="Path_7088" data-name="Path 7088" d="M17.21,21H6.79a2.243,2.243,0,0,1-2.222-1.779l-1.556-14A2,2,0,0,1,5,3H19a2,2,0,0,1,1.988,2.221l-1.556,14A2.244,2.244,0,0,1,17.21,21Z" fill="none" stroke="#bdc8d6" stroke-linecap="round" stroke-linejoin="round" stroke-width="1.5"/>
  </g>
  <path id="Path_7089" data-name="Path 7089" d="M0,0H24V24H0Z" fill="none"/>
</svg>
